<svg width="30" height="30" viewBox="0 0 30 30" fill="none" xmlns="http://www.w3.org/2000/svg">
<circle cx="15" cy="15" r="15" fill="#07FFD6"/>
<path fill-rule="evenodd" clip-rule="evenodd" d="M10.8773 5.06C11.9436 5.01091 12.2836 5 15 5C17.7164 5 18.0564 5.01182 19.1218 5.06C20.1873 5.10818 20.9145 5.27818 21.5509 5.52455C22.2173 5.77636 22.8218 6.17 23.3218 6.67909C23.8309 7.17818 24.2236 7.78182 24.4745 8.44909C24.7218 9.08545 24.8909 9.81273 24.94 10.8764C24.9891 11.9445 25 12.2845 25 15C25 17.7164 24.9882 18.0564 24.94 19.1227C24.8918 20.1864 24.7218 20.9136 24.4745 21.55C24.2236 22.2174 23.8303 22.822 23.3218 23.3218C22.8218 23.8309 22.2173 24.2236 21.5509 24.4745C20.9145 24.7218 20.1873 24.8909 19.1236 24.94C18.0564 24.9891 17.7164 25 15 25C12.2836 25 11.9436 24.9882 10.8773 24.94C9.81364 24.8918 9.08636 24.7218 8.45 24.4745C7.78266 24.2236 7.17802 23.8302 6.67818 23.3218C6.16944 22.8224 5.77574 22.2181 5.52455 21.5509C5.27818 20.9145 5.10909 20.1873 5.06 19.1236C5.01091 18.0555 5 17.7155 5 15C5 12.2836 5.01182 11.9436 5.06 10.8782C5.10818 9.81273 5.27818 9.08545 5.52455 8.44909C5.77611 7.78189 6.17011 7.17756 6.67909 6.67818C7.17822 6.16955 7.78225 5.77586 8.44909 5.52455C9.08545 5.27818 9.81273 5.10909 10.8764 5.06H10.8773ZM19.0409 6.86C17.9864 6.81182 17.67 6.80182 15 6.80182C12.33 6.80182 12.0136 6.81182 10.9591 6.86C9.98364 6.90455 9.45455 7.06727 9.10182 7.20455C8.63545 7.38636 8.30182 7.60182 7.95182 7.95182C7.62004 8.27459 7.36471 8.66753 7.20455 9.10182C7.06727 9.45455 6.90455 9.98364 6.86 10.9591C6.81182 12.0136 6.80182 12.33 6.80182 15C6.80182 17.67 6.81182 17.9864 6.86 19.0409C6.90455 20.0164 7.06727 20.5455 7.20455 20.8982C7.36455 21.3318 7.62 21.7255 7.95182 22.0482C8.27455 22.38 8.66818 22.6355 9.10182 22.7955C9.45455 22.9327 9.98364 23.0955 10.9591 23.14C12.0136 23.1882 12.3291 23.1982 15 23.1982C17.6709 23.1982 17.9864 23.1882 19.0409 23.14C20.0164 23.0955 20.5455 22.9327 20.8982 22.7955C21.3645 22.6136 21.6982 22.3982 22.0482 22.0482C22.38 21.7255 22.6355 21.3318 22.7955 20.8982C22.9327 20.5455 23.0955 20.0164 23.14 19.0409C23.1882 17.9864 23.1982 17.67 23.1982 15C23.1982 12.33 23.1882 12.0136 23.14 10.9591C23.0955 9.98364 22.9327 9.45455 22.7955 9.10182C22.6136 8.63545 22.3982 8.30182 22.0482 7.95182C21.7254 7.62006 21.3325 7.36474 20.8982 7.20455C20.5455 7.06727 20.0164 6.90455 19.0409 6.86ZM13.7227 18.0827C14.4361 18.3797 15.2303 18.4197 15.9699 18.1961C16.7095 17.9725 17.3485 17.499 17.7778 16.8566C18.2071 16.2142 18.4001 15.4426 18.3237 14.6737C18.2473 13.9049 17.9064 13.1863 17.3591 12.6409C17.0102 12.2923 16.5884 12.0253 16.1239 11.8592C15.6595 11.6932 15.164 11.6321 14.6732 11.6806C14.1823 11.729 13.7083 11.8856 13.2853 12.1392C12.8622 12.3928 12.5007 12.737 12.2266 13.1471C11.9526 13.5572 11.7729 14.023 11.7005 14.5109C11.628 14.9988 11.6647 15.4966 11.8078 15.9687C11.9508 16.4407 12.1968 16.8751 12.5279 17.2407C12.8591 17.6062 13.2671 17.8938 13.7227 18.0827ZM11.3655 11.3655C11.8428 10.8882 12.4094 10.5095 13.033 10.2512C13.6566 9.99293 14.325 9.85998 15 9.85998C15.675 9.85998 16.3434 9.99293 16.967 10.2512C17.5906 10.5095 18.1573 10.8882 18.6345 11.3655C19.1118 11.8428 19.4905 12.4094 19.7488 13.033C20.0071 13.6566 20.14 14.325 20.14 15C20.14 15.675 20.0071 16.3434 19.7488 16.967C19.4905 17.5906 19.1118 18.1573 18.6345 18.6345C17.6706 19.5985 16.3632 20.14 15 20.14C13.6368 20.14 12.3294 19.5985 11.3655 18.6345C10.4015 17.6706 9.85998 16.3632 9.85998 15C9.85998 13.6368 10.4015 12.3294 11.3655 11.3655ZM21.28 10.6255C21.3983 10.5139 21.493 10.3797 21.5585 10.2309C21.624 10.0821 21.6589 9.92161 21.6613 9.75903C21.6637 9.59645 21.6334 9.43504 21.5723 9.28437C21.5111 9.1337 21.4204 8.99683 21.3054 8.88185C21.1904 8.76688 21.0536 8.67614 20.9029 8.61502C20.7522 8.55389 20.5908 8.52361 20.4282 8.52598C20.2657 8.52835 20.1052 8.56332 19.9564 8.62881C19.8076 8.69431 19.6734 8.789 19.5618 8.90727C19.3448 9.1373 19.226 9.44284 19.2306 9.75903C19.2352 10.0752 19.3629 10.3772 19.5865 10.6008C19.8101 10.8244 20.1121 10.952 20.4282 10.9566C20.7444 10.9612 21.05 10.8424 21.28 10.6255Z" fill="black"/>
</svg>
